<svg id="Capa_1" enable-background="new 0 0 512 512" height="512" viewBox="0 0 512 512" width="512" xmlns="http://www.w3.org/2000/svg"><g><path d="m389.758 143.382-159.623 259.427c-2.28 3.7-6.05 6.23-10.34 6.94-129.243 21.339-120.783 20.039-122.583 20.039-9.194 0-16.319-8.268-14.799-17.439l19.839-120.144c.71-4.3 3.25-8.08 6.97-10.349l259.928-159.122c5.8-3.56 13.269-2.75 18.179 1.94.09.08.18.17.27.26 4.899 4.908 5.789 12.538 2.159 18.448z" fill="#dfe7f4"/><path d="m389.758 143.382-159.623 259.427c-2.28 3.7-6.05 6.23-10.34 6.94-129.243 21.339-120.783 20.039-122.583 20.039-4.18 0-7.91-1.69-10.6-4.4l300.716-300.716c.09.08.18.17.27.26 4.9 4.91 5.79 12.54 2.16 18.45z" fill="#c7cfe1"/><path d="m511.052 20.217-177.562 481.977c-3.77 10.239-16.929 13.149-24.689 5.42-133.583-133.583-125.533-124.744-127.193-129.114-3.94-10.51-5.49-4.34 113.745-161.852-158.413 119.914-148.274 112.765-152.034 114.015-5.33 1.62-10.919.4-15.149-3.68l-123.784-123.784c-7.75-7.78-4.79-20.919 5.42-24.689l481.977-177.562c5.99-2.2 11.909-.38 15.779 3.49s5.69 9.79 3.49 15.779z" fill="#7ed8f6"/><path d="m511.052 20.217-177.562 481.977c-3.77 10.239-16.929 13.149-24.689 5.42-133.583-133.583-125.533-124.744-127.193-129.114-3.94-10.51-5.49-4.34 113.745-161.852l212.21-212.21c3.869 3.87 5.689 9.79 3.489 15.779z" fill="#6aa9ff"/></g></svg>